<svg aria-hidden="true" style="position:absolute;width:0;height:0;overflow:hidden" xmlns="http://www.w3.org/2000/svg">
  <defs>
    <symbol id="icon-arrow-right" viewBox="0 0 32 32">
      <path d="m13.616 32 16-16-16-16-3.373 3.373 10.243 10.24H.003v4.773h20.483l-10.243 10.24z"/>
    </symbol>
    <symbol id="icon-check" viewBox="0 0 37 32">
      <path stroke-width="8" d="M2.667 14.952 11.715 24 33.048 2.667"/>
    </symbol>
    <symbol id="icon-copy" viewBox="0 0 28 32">
      <path d="M27.121 4.121 23.878.878a2.992 2.992 0 0 0-2.12-.879H10.999a3 3 0 0 0-3 3v3h-5a3 3 0 0 0-3 3v20a3 3 0 0 0 3 3h14a3 3 0 0 0 3-3v-3h5a3 3 0 0 0 3-3V6.242a2.99 2.99 0 0 0-.879-2.121zM16.625 29H3.373a.375.375 0 0 1-.375-.375V9.373c0-.207.168-.375.375-.375H8v14a3 3 0 0 0 3 3h6v2.625a.376.376 0 0 1-.375.375zm8-6H11.373a.375.375 0 0 1-.375-.375V3.373c0-.207.168-.375.375-.375H18v5.5a1.5 1.5 0 0 0 1.5 1.5H25v12.625a.376.376 0 0 1-.375.375zM25 7h-4V3h.601c.1 0 .196.04.267.109l3.021 3.024a.378.378 0 0 1 .109.265v.601z"/>
    </symbol>
  </defs>
</svg>
